<svg width="152" height="189" viewBox="0 0 152 189" fill="none" xmlns="http://www.w3.org/2000/svg">
<rect width="152" height="189" fill="#011627"/>
<path d="M18.8033 151.6H21.1713V171.952H33.7153V174H18.8033V151.6ZM37.647 151.6H40.015V174H37.647V151.6ZM49.6713 153.648V162.448H61.2553V164.496H49.6713V174H47.3033V151.6H62.6633V153.648H49.6713ZM83.3933 171.952V174H67.5533V151.6H82.9133V153.648H69.9213V161.616H81.5053V163.632H69.9213V171.952H83.3933ZM96.0215 174.36C94.7015 174.36 93.4715 174.14 92.3315 173.7C91.2115 173.26 90.2315 172.61 89.3915 171.75C88.5715 170.89 87.9315 169.83 87.4715 168.57C87.0115 167.31 86.7815 165.87 86.7815 164.25C86.7815 162.65 87.0215 161.22 87.5015 159.96C87.9815 158.68 88.6315 157.6 89.4515 156.72C90.2915 155.84 91.2715 155.17 92.3915 154.71C93.5315 154.25 94.7515 154.02 96.0515 154.02C97.4515 154.02 98.6315 154.28 99.5915 154.8C100.572 155.3 101.372 155.87 101.992 156.51L100.132 158.76C99.6315 158.28 99.0715 157.88 98.4515 157.56C97.8515 157.22 97.0915 157.05 96.1715 157.05C95.2915 157.05 94.4915 157.22 93.7715 157.56C93.0715 157.88 92.4615 158.35 91.9415 158.97C91.4415 159.57 91.0515 160.31 90.7715 161.19C90.4915 162.07 90.3515 163.06 90.3515 164.16C90.3515 166.4 90.8515 168.16 91.8515 169.44C92.8715 170.7 94.3715 171.33 96.3515 171.33C96.9115 171.33 97.4415 171.26 97.9415 171.12C98.4415 170.96 98.8515 170.74 99.1715 170.46V166.23H95.4515V163.38H102.292V172.02C101.632 172.68 100.752 173.24 99.6515 173.7C98.5715 174.14 97.3615 174.36 96.0215 174.36ZM106.639 174V154.38H112.819C113.899 154.38 114.899 154.48 115.819 154.68C116.759 154.88 117.569 155.22 118.249 155.7C118.929 156.18 119.459 156.81 119.839 157.59C120.219 158.35 120.409 159.3 120.409 160.44C120.409 161.52 120.219 162.46 119.839 163.26C119.459 164.06 118.929 164.73 118.249 165.27C117.589 165.79 116.799 166.18 115.879 166.44C114.979 166.68 113.999 166.8 112.939 166.8H110.119V174H106.639ZM110.119 164.01H112.669C115.549 164.01 116.989 162.82 116.989 160.44C116.989 159.2 116.609 158.35 115.849 157.89C115.109 157.41 114.009 157.17 112.549 157.17H110.119V164.01ZM126.626 163.56L125.936 165.96H130.946L130.256 163.56C129.936 162.52 129.626 161.45 129.326 160.35C129.046 159.25 128.766 158.16 128.486 157.08H128.366C128.086 158.18 127.806 159.28 127.526 160.38C127.246 161.46 126.946 162.52 126.626 163.56ZM120.056 174L126.446 154.38H130.526L136.916 174H133.256L131.726 168.69H125.126L123.596 174H120.056Z" fill="#FDFFFC"/>
<rect x="96" y="16" width="40" height="40" fill="#E71D36"/>
<rect x="96" y="56" width="40" height="40" fill="#011627"/>
<rect x="96" y="96" width="40" height="40" fill="#2EC4B6"/>
<rect x="56" y="96" width="40" height="40" fill="#011627"/>
<rect x="56" y="56" width="40" height="40" fill="#E71D36"/>
<rect x="56" y="16" width="40" height="40" fill="#FF9F1C"/>
<rect x="16" y="16" width="40" height="40" fill="#011627"/>
<rect x="16" y="96" width="40" height="40" fill="#2EC4B6"/>
<rect x="16" y="56" width="40" height="40" fill="#FF9F1C"/>
</svg>
