<svg width="119" height="24" viewBox="0 0 119 24" fill="none" xmlns="http://www.w3.org/2000/svg">
                    <path d="M0.803274 0.599998H3.17127V20.952H15.7153V23H0.803274V0.599998ZM19.647 0.599998H22.015V23H19.647V0.599998ZM31.6713 2.648V11.448H43.2553V13.496H31.6713V23H29.3033V0.599998H44.6633V2.648H31.6713ZM65.3933 20.952V23H49.5533V0.599998H64.9133V2.648H51.9213V10.616H63.5053V12.632H51.9213V20.952H65.3933ZM78.0215 23.36C76.7015 23.36 75.4715 23.14 74.3315 22.7C73.2115 22.26 72.2315 21.61 71.3915 20.75C70.5715 19.89 69.9315 18.83 69.4715 17.57C69.0115 16.31 68.7815 14.87 68.7815 13.25C68.7815 11.65 69.0215 10.22 69.5015 8.96C69.9815 7.68 70.6315 6.6 71.4515 5.72C72.2915 4.84 73.2715 4.17 74.3915 3.71C75.5315 3.25 76.7515 3.02 78.0515 3.02C79.4515 3.02 80.6315 3.28 81.5915 3.8C82.5715 4.3 83.3715 4.87 83.9915 5.51L82.1315 7.76C81.6315 7.28 81.0715 6.88 80.4515 6.56C79.8515 6.22 79.0915 6.05 78.1715 6.05C77.2915 6.05 76.4915 6.22 75.7715 6.56C75.0715 6.88 74.4615 7.35 73.9415 7.97C73.4415 8.57 73.0515 9.31 72.7715 10.19C72.4915 11.07 72.3515 12.06 72.3515 13.16C72.3515 15.4 72.8515 17.16 73.8515 18.44C74.8715 19.7 76.3715 20.33 78.3515 20.33C78.9115 20.33 79.4415 20.26 79.9415 20.12C80.4415 19.96 80.8515 19.74 81.1715 19.46V15.23H77.4515V12.38H84.2915V21.02C83.6315 21.68 82.7515 22.24 81.6515 22.7C80.5715 23.14 79.3615 23.36 78.0215 23.36ZM88.6394 23V3.38H94.8194C95.8994 3.38 96.8994 3.48 97.8194 3.68C98.7594 3.88 99.5694 4.22 100.249 4.7C100.929 5.18 101.459 5.81 101.839 6.59C102.219 7.35 102.409 8.3 102.409 9.44C102.409 10.52 102.219 11.46 101.839 12.26C101.459 13.06 100.929 13.73 100.249 14.27C99.5894 14.79 98.7994 15.18 97.8794 15.44C96.9794 15.68 95.9994 15.8 94.9394 15.8H92.1194V23H88.6394ZM92.1194 13.01H94.6694C97.5494 13.01 98.9894 11.82 98.9894 9.44C98.9894 8.2 98.6094 7.35 97.8494 6.89C97.1094 6.41 96.0094 6.17 94.5494 6.17H92.1194V13.01ZM108.626 12.56L107.936 14.96H112.946L112.256 12.56C111.936 11.52 111.626 10.45 111.326 9.35C111.046 8.25 110.766 7.16 110.486 6.08H110.366C110.086 7.18 109.806 8.28 109.526 9.38C109.246 10.46 108.946 11.52 108.626 12.56ZM102.056 23L108.446 3.38H112.526L118.916 23H115.256L113.726 17.69H107.126L105.596 23H102.056Z" fill="#FDFFFC"/>
                </svg>    