
                    
                    <svg width="22" height="22" viewBox="0 0 22 22" fill="none" xmlns="http://www.w3.org/2000/svg">
                        <path d="M12.1717 19.8641L11.1223 20.9047C10.678 21.3454 9.95948 21.3454 9.51988 20.9047L0.330804 11.7969C-0.113523 11.3563 -0.113523 10.6438 0.330804 10.2079L9.51988 1.09536C9.96421 0.654736 10.6827 0.654736 11.1223 1.09536L12.1717 2.13599C12.6207 2.5813 12.6113 3.30786 12.1528 3.7438L6.45686 9.12505H20.0419C20.6706 9.12505 21.1764 9.62661 21.1764 10.25V11.75C21.1764 12.3735 20.6706 12.8751 20.0419 12.8751H6.45686L12.1528 18.2563C12.616 18.6922 12.6254 19.4188 12.1717 19.8641Z" fill="#FDFFFC"/>
                    </svg>
                
          